<svg width="85" height="35" viewBox="0 0 85 35" fill="none" xmlns="http://www.w3.org/2000/svg">
<path d="M8.78389 34.02C7.12789 34.02 5.62789 33.612 4.28389 32.796C2.96389 31.98 1.91989 30.804 1.15189 29.268C0.383887 27.708 -0.000113219 25.872 -0.000113219 23.76C-0.000113219 20.112 0.779887 16.74 2.33989 13.644C3.89989 10.524 6.20389 8.02803 9.25189 6.15602C12.2999 4.26003 15.9599 3.31203 20.2319 3.31203C21.3359 3.31203 22.5119 3.39603 23.7599 3.56403C25.0319 3.73203 26.1839 3.98403 27.2159 4.32002C27.8879 4.51203 28.2239 4.99203 28.2239 5.76003C28.2239 6.38403 27.9839 6.97203 27.5039 7.52403C27.0479 8.07603 26.5079 8.35203 25.8839 8.35203C25.6919 8.35203 25.5479 8.34003 25.4519 8.31603C24.2039 8.02803 23.1359 7.82403 22.2479 7.70403C21.3599 7.56003 20.4239 7.48802 19.4399 7.48802C16.3919 7.48802 13.7999 8.23203 11.6639 9.72003C9.52789 11.184 7.93189 13.128 6.87589 15.552C5.81989 17.976 5.29189 20.592 5.29189 23.4C5.29189 25.44 5.68789 27.024 6.47989 28.152C7.29589 29.256 8.35189 29.808 9.64789 29.808C11.1119 29.808 12.3959 29.208 13.4999 28.008C14.6039 26.808 15.6119 24.864 16.5239 22.176C17.4359 19.488 18.3359 15.84 19.2239 11.232C19.3679 10.56 19.6559 10.104 20.0879 9.86403C20.5199 9.62403 21.0959 9.50402 21.8159 9.50402C23.5199 9.50402 24.3719 10.056 24.3719 11.16C24.3719 11.352 24.3359 11.592 24.2639 11.88C23.6399 14.208 23.0639 16.788 22.5359 19.62C22.0319 22.428 21.7799 24.564 21.7799 26.028C21.7799 27.324 21.9719 28.272 22.3559 28.872C22.7399 29.448 23.3279 29.736 24.1199 29.736C24.8879 29.736 25.6199 29.484 26.3159 28.98C27.0119 28.452 27.8879 27.564 28.9439 26.316C29.2319 25.98 29.5559 25.812 29.9159 25.812C30.2279 25.812 30.4679 25.956 30.6359 26.244C30.8279 26.532 30.9239 26.928 30.9239 27.432C30.9239 28.368 30.6959 29.112 30.2399 29.664C29.0639 31.08 27.9119 32.16 26.7839 32.904C25.6559 33.648 24.2759 34.02 22.6439 34.02C20.9639 34.02 19.6079 33.54 18.5759 32.58C17.5439 31.596 16.8959 30.216 16.6319 28.44C14.8559 32.16 12.2399 34.02 8.78389 34.02ZM30.5687 34.02C29.6567 34.02 29.0087 33.54 28.6247 32.58C28.2647 31.62 28.0847 30.084 28.0847 27.972C28.0847 24.852 28.5287 21.888 29.4167 19.08C29.6327 18.384 29.9807 17.88 30.4607 17.568C30.9647 17.232 31.6607 17.064 32.5487 17.064C33.0287 17.064 33.3647 17.124 33.5567 17.244C33.7487 17.364 33.8447 17.592 33.8447 17.928C33.8447 18.312 33.6647 19.176 33.3047 20.52C33.0647 21.48 32.8727 22.32 32.7287 23.04C32.5847 23.76 32.4647 24.648 32.3687 25.704C33.1607 23.64 34.0487 21.96 35.0327 20.664C36.0167 19.368 36.9767 18.444 37.9127 17.892C38.8727 17.34 39.7487 17.064 40.5407 17.064C42.1007 17.064 42.8807 17.844 42.8807 19.404C42.8807 19.716 42.7727 20.472 42.5567 21.672C42.3647 22.632 42.2687 23.232 42.2687 23.472C42.2687 24.312 42.5687 24.732 43.1687 24.732C43.8407 24.732 44.7047 24.204 45.7607 23.148C46.0727 22.836 46.3967 22.68 46.7327 22.68C47.0447 22.68 47.2847 22.824 47.4527 23.112C47.6447 23.376 47.7407 23.736 47.7407 24.192C47.7407 25.08 47.5007 25.776 47.0207 26.28C46.3487 26.976 45.5567 27.576 44.6447 28.08C43.7567 28.56 42.8087 28.8 41.8007 28.8C40.5287 28.8 39.5567 28.476 38.8847 27.828C38.2367 27.18 37.9127 26.304 37.9127 25.2C37.9127 24.84 37.9487 24.48 38.0207 24.12C38.0687 23.64 38.0927 23.316 38.0927 23.148C38.0927 22.764 37.9607 22.572 37.6967 22.572C37.3367 22.572 36.8567 22.98 36.2567 23.796C35.6807 24.588 35.1047 25.644 34.5287 26.964C33.9527 28.284 33.4847 29.676 33.1247 31.14C32.8607 32.268 32.5487 33.036 32.1887 33.444C31.8527 33.828 31.3127 34.02 30.5687 34.02ZM58.0395 25.812C58.3515 25.812 58.5915 25.956 58.7595 26.244C58.9515 26.532 59.0475 26.928 59.0475 27.432C59.0475 28.392 58.8195 29.136 58.3635 29.664C57.3315 30.936 56.2035 31.98 54.9795 32.796C53.7795 33.612 52.4115 34.02 50.8755 34.02C48.7635 34.02 47.1915 33.06 46.1595 31.14C45.1515 29.22 44.6475 26.736 44.6475 23.688C44.6475 20.76 45.0195 17.424 45.7635 13.68C46.5315 9.93603 47.6475 6.72003 49.1115 4.03202C50.5995 1.34402 52.3635 2.47955e-05 54.4035 2.47955e-05C55.5555 2.47955e-05 56.4555 0.540025 57.1035 1.62003C57.7755 2.67603 58.1115 4.20003 58.1115 6.19203C58.1115 9.04803 57.3195 12.36 55.7355 16.128C54.1515 19.896 52.0035 23.628 49.2915 27.324C49.4595 28.308 49.7355 29.016 50.1195 29.448C50.5035 29.856 51.0075 30.06 51.6315 30.06C52.6155 30.06 53.4795 29.784 54.2235 29.232C54.9675 28.656 55.9155 27.684 57.0675 26.316C57.3555 25.98 57.6795 25.812 58.0395 25.812ZM53.6115 3.56403C53.0595 3.56403 52.4355 4.56003 51.7395 6.55203C51.0435 8.54403 50.4315 11.016 49.9035 13.968C49.3755 16.92 49.0875 19.752 49.0395 22.464C50.7435 19.656 52.0995 16.848 53.1075 14.04C54.1155 11.208 54.6195 8.62803 54.6195 6.30003C54.6195 4.47603 54.2835 3.56403 53.6115 3.56403ZM72.1937 25.812C72.5057 25.812 72.7457 25.956 72.9137 26.244C73.1057 26.532 73.2017 26.928 73.2017 27.432C73.2017 28.392 72.9737 29.136 72.5177 29.664C71.6297 30.744 70.3697 31.74 68.7377 32.652C67.1297 33.564 65.4017 34.02 63.5537 34.02C61.0337 34.02 59.0777 33.336 57.6857 31.968C56.2937 30.6 55.5977 28.728 55.5977 26.352C55.5977 24.696 55.9457 23.16 56.6417 21.744C57.3377 20.304 58.2977 19.164 59.5217 18.324C60.7697 17.484 62.1737 17.064 63.7337 17.064C65.1257 17.064 66.2417 17.484 67.0817 18.324C67.9217 19.14 68.3417 20.256 68.3417 21.672C68.3417 23.328 67.7417 24.756 66.5417 25.956C65.3657 27.132 63.3617 28.068 60.5297 28.764C61.1297 29.868 62.2697 30.42 63.9497 30.42C65.0297 30.42 66.2537 30.048 67.6217 29.304C69.0137 28.536 70.2137 27.54 71.2217 26.316C71.5097 25.98 71.8337 25.812 72.1937 25.812ZM63.1217 20.592C62.2337 20.592 61.4777 21.108 60.8537 22.14C60.2537 23.172 59.9537 24.42 59.9537 25.884V25.956C61.3697 25.62 62.4857 25.116 63.3017 24.444C64.1177 23.772 64.5257 22.992 64.5257 22.104C64.5257 21.648 64.3937 21.288 64.1297 21.024C63.8897 20.736 63.5537 20.592 63.1217 20.592ZM83.1585 26.892C83.4705 26.892 83.7105 27.036 83.8785 27.324C84.0705 27.612 84.1665 28.008 84.1665 28.512C84.1665 29.376 83.9625 30.12 83.5545 30.744C82.8825 31.776 81.9945 32.58 80.8905 33.156C79.8105 33.732 78.5145 34.02 77.0025 34.02C74.6985 34.02 72.9105 33.336 71.6385 31.968C70.3665 30.576 69.7305 28.704 69.7305 26.352C69.7305 24.696 70.0785 23.16 70.7745 21.744C71.4705 20.304 72.4305 19.164 73.6545 18.324C74.9025 17.484 76.3065 17.064 77.8665 17.064C79.2585 17.064 80.3745 17.484 81.2145 18.324C82.0545 19.14 82.4745 20.256 82.4745 21.672C82.4745 23.328 81.8745 24.756 80.6745 25.956C79.4985 27.132 77.4825 28.068 74.6265 28.764C75.2025 29.868 76.1745 30.42 77.5425 30.42C78.5265 30.42 79.3305 30.192 79.9545 29.736C80.6025 29.28 81.3465 28.512 82.1865 27.432C82.4745 27.072 82.7985 26.892 83.1585 26.892ZM77.2545 20.592C76.3665 20.592 75.6105 21.108 74.9865 22.14C74.3865 23.172 74.0865 24.42 74.0865 25.884V25.956C75.5025 25.62 76.6185 25.116 77.4345 24.444C78.2505 23.772 78.6585 22.992 78.6585 22.104C78.6585 21.648 78.5265 21.288 78.2625 21.024C78.0225 20.736 77.6865 20.592 77.2545 20.592Z" fill="white"/>
</svg>
